<?xml version="1.0" encoding="utf-8"?>
<!-- Generator: Adobe Illustrator 19.0.0, SVG Export Plug-In . SVG Version: 6.00 Build 0)  -->
<svg version="1.1" id="Layer_1" xmlns="http://www.w3.org/2000/svg" xmlns:xlink="http://www.w3.org/1999/xlink" x="0px" y="0px"
	 viewBox="1 9.2 527 84.3" style="enable-background:new 1 9.2 527 84.3;" xml:space="preserve">
<style type="text/css">
	.st0{fill:#1E4EC4;}
	.st1{fill:#9E1529;}
</style>
<path class="st0" d="M33.7,21l23.7,51.5h-4.1l-8.1-17.7h-25l-8.1,17.7H8L31.6,21H33.7z M43.6,51.6l-11-24.1l-11,24.1H43.6z"/>
<path class="st0" d="M66.5,21.4v51.2h-3.6V21.4C62.9,21.4,66.5,21.4,66.5,21.4z"/>
<path class="st0" d="M76.4,70.7V21.4H80v22.3c3.6-3.7,7.6-5.5,12.1-5.5c4.4,0,8,1.5,10.8,4.6c2.8,3.1,4.2,7,4.2,11.8
	c0,5.6-1.7,10.1-5.1,13.5c-3.4,3.4-8,5.1-13.7,5.1C84.6,73.2,80.6,72.4,76.4,70.7z M80,47.7v20.4c2.8,1,5.5,1.6,8.3,1.6
	c4.3,0,7.9-1.4,10.8-4.2c2.9-2.8,4.3-6.3,4.3-10.6c0-4-1.1-7.3-3.3-9.8s-5-3.8-8.3-3.8C87.7,41.2,83.8,43.4,80,47.7z"/>
<path class="st0" d="M137.6,72.5v-5.6h-0.1c-1.6,2.2-3.2,3.8-4.8,4.8s-3.7,1.4-6.3,1.4c-3.6,0-6.6-1.2-9-3.5
	c-2.4-2.3-3.6-5.7-3.6-10V38.8h3.6v20.8c0,3.1,0.9,5.6,2.6,7.4c1.7,1.8,3.9,2.7,6.7,2.7c2.3,0,4.3-0.5,6-1.6c1.6-1.1,3.3-2.9,5-5.6
	V38.8h3.6v33.7H137.6z"/>
<path class="st0" d="M154.1,38.8v5.9h0.1c2.7-4.4,6.3-6.6,10.7-6.6c5.2,0,8.8,2.7,10.9,8.1c3.2-5.4,7.1-8.1,11.7-8.1
	c3.5,0,6.3,1.2,8.5,3.7c2.1,2.5,3.2,5.8,3.2,9.9v20.7h-3.6v-19c0-3.6-0.8-6.5-2.3-8.6c-1.5-2.1-3.7-3.1-6.5-3.1
	c-2.1,0-3.9,0.6-5.4,1.9c-1.5,1.3-3.1,3.2-4.8,6v23H173V53.4c0-3.7-0.8-6.6-2.4-8.6c-1.6-2-3.7-3-6.4-3c-3.9,0-7.3,2.4-10.1,7.2
	v23.6h-3.6V38.8H154.1z"/>
<path class="st1" d="M240.8,24h-22.7v13.6h22v8h-22v18.9h22.7v8h-31.2V16h31.2V24z"/>
<g>
	<path class="st1" d="M311.3,38.4v10.9c-1.9-2.3-3.6-3.9-5.1-4.7c-1.5-0.9-3.2-1.3-5.2-1.3c-3.1,0-5.7,1.1-7.7,3.3
		c-2,2.2-3.1,4.9-3.1,8.2s1,6.1,3,8.2c2,2.1,4.6,3.2,7.7,3.2c2,0,3.7-0.4,5.2-1.3c1.5-0.8,3.2-2.4,5.2-4.8V71
		c-3.3,1.7-6.7,2.6-10,2.6c-5.5,0-10.1-1.8-13.8-5.3c-3.7-3.6-5.6-8-5.6-13.4s1.9-9.8,5.6-13.5c3.7-3.7,8.4-5.5,13.8-5.5
		C304.9,35.9,308.2,36.7,311.3,38.4z"/>
	<path class="st1" d="M320.3,10.7h8.2v29.2c2.9-2.6,6.2-4,9.7-4c4,0,7.2,1.3,9.7,3.9c2.1,2.3,3.1,5.9,3.1,10.9v21.9h-8.2V51.4
		c0-2.9-0.5-4.9-1.5-6.2c-1-1.3-2.6-1.9-4.9-1.9c-2.9,0-4.9,0.9-6.1,2.7c-1.1,1.8-1.7,4.9-1.7,9.3v17.2h-8.2V10.7H320.3z"/>
	<path class="st1" d="M386.7,36.9h8.3v35.7h-8.3v-3.7c-3.4,3.2-7,4.8-10.9,4.8c-4.9,0-9-1.8-12.2-5.3c-3.2-3.6-4.8-8.2-4.8-13.6
		c0-5.3,1.6-9.8,4.8-13.4c3.2-3.6,7.2-5.3,12-5.3c4.2,0,7.9,1.7,11.2,5.1L386.7,36.9L386.7,36.9z M367.1,54.6c0,3.4,0.9,6.2,2.7,8.3
		c1.9,2.2,4.2,3.3,7.1,3.3c3.1,0,5.5-1,7.4-3.1c1.9-2.2,2.8-4.9,2.8-8.3s-0.9-6.1-2.8-8.3c-1.9-2.1-4.3-3.2-7.3-3.2
		c-2.8,0-5.2,1.1-7.1,3.2C368.1,48.7,367.1,51.4,367.1,54.6z"/>
	<path class="st1" d="M404.3,36.9h8.3v3.3c2.9-2.9,6.1-4.3,9.7-4.3c4.2,0,7.4,1.3,9.7,3.9c2,2.2,3,5.8,3,10.9v21.9h-8.3v-20
		c0-3.5-0.5-5.9-1.5-7.3s-2.7-2-5.2-2c-2.7,0-4.7,0.9-5.8,2.7c-1.1,1.8-1.7,4.9-1.7,9.3v17.2h-8.3L404.3,36.9L404.3,36.9z"/>
	<path class="st1" d="M479,71.7c0,1.7-0.1,3.2-0.2,4.4c-0.1,1.2-0.3,2.4-0.5,3.4c-0.6,2.7-1.7,5-3.4,6.9c-3.2,3.7-7.7,5.6-13.3,5.6
		c-4.8,0-8.7-1.3-11.8-3.9c-3.2-2.6-5-6.3-5.5-11h8.3c0.3,1.8,0.8,3.1,1.6,4.1c1.7,2.2,4.2,3.3,7.5,3.3c6,0,9-3.7,9-11.1v-5
		c-3.3,3.3-7,5-11.3,5c-4.9,0-8.8-1.8-11.9-5.3c-3.1-3.6-4.7-8-4.7-13.4c0-5.2,1.5-9.6,4.4-13.3c3.1-3.9,7.3-5.8,12.4-5.8
		c4.5,0,8.2,1.7,11.2,5v-4h8.2V71.7L479,71.7z M471.1,54.8c0-3.5-0.9-6.2-2.8-8.3c-1.9-2.1-4.3-3.2-7.2-3.2c-3.1,0-5.6,1.2-7.4,3.5
		c-1.6,2.1-2.5,4.8-2.5,8c0,3.2,0.8,5.9,2.5,8c1.8,2.3,4.2,3.4,7.4,3.4s5.6-1.1,7.5-3.4C470.2,60.7,471.1,58,471.1,54.8z"/>
	<path class="st1" d="M520.9,56.6h-25.6c0.2,2.9,1.2,5.3,2.9,7c1.7,1.7,3.8,2.6,6.5,2.6c2.1,0,3.7-0.5,5.1-1.5
		c1.3-1,2.8-2.8,4.5-5.4l7,3.9c-1.1,1.8-2.2,3.4-3.4,4.7c-1.2,1.3-2.5,2.4-3.8,3.2c-1.4,0.8-2.8,1.5-4.4,1.8
		c-1.6,0.4-3.3,0.6-5.2,0.6c-5.3,0-9.6-1.7-12.8-5.1c-3.2-3.4-4.8-8-4.8-13.7c0-5.6,1.6-10.2,4.7-13.7c3.1-3.4,7.3-5.2,12.5-5.2
		s9.4,1.7,12.5,5c3,3.3,4.5,7.9,4.5,13.8L520.9,56.6z M512.4,49.9c-1.1-4.4-3.9-6.6-8.3-6.6c-1,0-1.9,0.2-2.8,0.5
		c-0.9,0.3-1.7,0.7-2.4,1.3c-0.7,0.6-1.3,1.3-1.8,2.1s-0.9,1.7-1.2,2.7H512.4z"/>
</g>
<g>
	<polygon class="st1" points="269.7,39.3 261.6,47.4 253.6,39.3 	"/>
	<polyline class="st1" points="253.2,55.9 245.2,64.1 245.2,47.8 	"/>
	<polyline class="st1" points="261.6,63.6 269.7,71.7 253.6,71.7 	"/>
	<polyline class="st1" points="270.1,56 278.1,47.9 278.1,64.2 	"/>
</g>
</svg>
