<?xml version="1.0" encoding="utf-8"?>
<!-- Generator: Adobe Illustrator 19.0.0, SVG Export Plug-In . SVG Version: 6.00 Build 0)  -->
<svg version="1.1" id="Layer_1" xmlns="http://www.w3.org/2000/svg" xmlns:xlink="http://www.w3.org/1999/xlink" x="0px" y="0px"
	 viewBox="70.4 -24 515.1 81.3" style="enable-background:new 70.4 -24 515.1 81.3;" xml:space="preserve">
<style type="text/css">
	.st0{fill:#1E4EC4;}
	.st1{fill:#9E1529;}
</style>
<g>
	<path class="st0" d="M96.1-13.7l23.7,51.5h-4.1l-8.1-17.7h-25l-8.1,17.7h-4.1L94-13.7H96.1z M106,16.9L95-7.2L84,16.9H106z"/>
	<path class="st0" d="M128.9-13.3v51.2h-3.6v-51.2H128.9z"/>
	<path class="st0" d="M138.8,36v-49.3h3.6V9c3.6-3.7,7.6-5.5,12.1-5.5c4.4,0,8,1.5,10.8,4.6s4.2,7,4.2,11.8c0,5.6-1.7,10.1-5.1,13.5
		c-3.4,3.4-8,5.1-13.7,5.1C147,38.5,143,37.7,138.8,36z M142.4,13v20.4c2.8,1,5.5,1.6,8.3,1.6c4.3,0,7.9-1.4,10.8-4.2
		s4.3-6.3,4.3-10.6c0-4-1.1-7.3-3.3-9.8s-5-3.8-8.3-3.8C150.1,6.5,146.2,8.7,142.4,13z"/>
	<path class="st0" d="M200,37.8v-5.6h-0.1c-1.6,2.2-3.2,3.8-4.8,4.8s-3.7,1.4-6.3,1.4c-3.6,0-6.6-1.2-9-3.5c-2.4-2.3-3.6-5.7-3.6-10
		V4.1h3.6v20.8c0,3.1,0.9,5.6,2.6,7.4c1.7,1.8,3.9,2.7,6.7,2.7c2.3,0,4.3-0.5,6-1.6c1.6-1.1,3.3-2.9,5-5.6V4.1h3.6v33.7H200z"/>
	<path class="st0" d="M216.5,4.1V10h0.1c2.7-4.4,6.3-6.6,10.7-6.6c5.2,0,8.8,2.7,10.9,8.1c3.2-5.4,7.1-8.1,11.7-8.1
		c3.5,0,6.3,1.2,8.5,3.7c2.1,2.5,3.2,5.8,3.2,9.9v20.7H258v-19c0-3.6-0.8-6.5-2.3-8.6C254.2,8,252,7,249.2,7c-2.1,0-3.9,0.6-5.4,1.9
		s-3.1,3.2-4.8,6v23h-3.6V18.7c0-3.7-0.8-6.6-2.4-8.6c-1.6-2-3.7-3-6.4-3c-3.9,0-7.3,2.4-10.1,7.2v23.6h-3.6V4.1H216.5z"/>
	<path class="st1" d="M303.2-10.7h-22.7V2.9h22v8h-22v18.9h22.7v8H272v-56.5h31.2V-10.7z"/>
	<path class="st1" d="M375.7,3.7v10.9c-1.9-2.3-3.6-3.9-5.1-4.7c-1.5-0.9-3.2-1.3-5.2-1.3c-3.1,0-5.7,1.1-7.7,3.3s-3.1,4.9-3.1,8.2
		s1,6.1,3,8.2c2,2.1,4.6,3.2,7.7,3.2c2,0,3.7-0.4,5.2-1.3c1.5-0.8,3.2-2.4,5.2-4.8v10.9c-3.3,1.7-6.7,2.6-10,2.6
		c-5.5,0-10.1-1.8-13.8-5.3c-3.7-3.6-5.6-8-5.6-13.4s1.9-9.8,5.6-13.5s8.4-5.5,13.8-5.5C369.3,1.2,372.6,2,375.7,3.7z"/>
	<path class="st1" d="M384.7-24h8.2V5.2c2.9-2.6,6.2-4,9.7-4c4,0,7.2,1.3,9.7,3.9c2.1,2.3,3.1,5.9,3.1,10.9v21.9h-8.2V16.7
		c0-2.9-0.5-4.9-1.5-6.2s-2.6-1.9-4.9-1.9c-2.9,0-4.9,0.9-6.1,2.7c-1.1,1.8-1.7,4.9-1.7,9.3v17.2h-8.2V-24H384.7z"/>
	<path class="st1" d="M451.1,2.2h8.3v35.7h-8.3v-3.7c-3.4,3.2-7,4.8-10.9,4.8c-4.9,0-9-1.8-12.2-5.3c-3.2-3.6-4.8-8.2-4.8-13.6
		c0-5.3,1.6-9.8,4.8-13.4c3.2-3.6,7.2-5.3,12-5.3c4.2,0,7.9,1.7,11.2,5.1V2.2C451.2,2.2,451.1,2.2,451.1,2.2z M431.5,19.9
		c0,3.4,0.9,6.2,2.7,8.3c1.9,2.2,4.2,3.3,7.1,3.3c3.1,0,5.5-1,7.4-3.1c1.9-2.2,2.8-4.9,2.8-8.3s-0.9-6.1-2.8-8.3
		c-1.9-2.1-4.3-3.2-7.3-3.2c-2.8,0-5.2,1.1-7.1,3.2C432.5,14,431.5,16.7,431.5,19.9z"/>
	<path class="st1" d="M468.7,2.2h8.3v3.3c2.9-2.9,6.1-4.3,9.7-4.3c4.2,0,7.4,1.3,9.7,3.9c2,2.2,3,5.8,3,10.9v21.9h-8.3v-20
		c0-3.5-0.5-5.9-1.5-7.3c-1-1.4-2.7-2-5.2-2c-2.7,0-4.7,0.9-5.8,2.7c-1.1,1.8-1.7,4.9-1.7,9.3v17.2h-8.3L468.7,2.2L468.7,2.2z"/>
	<path class="st1" d="M543.4,37c0,1.7-0.1,3.2-0.2,4.4c-0.1,1.2-0.3,2.4-0.5,3.4c-0.6,2.7-1.7,5-3.4,6.9c-3.2,3.7-7.7,5.6-13.3,5.6
		c-4.8,0-8.7-1.3-11.8-3.9c-3.2-2.6-5-6.3-5.5-11h8.3c0.3,1.8,0.8,3.1,1.6,4.1c1.7,2.2,4.2,3.3,7.5,3.3c6,0,9-3.7,9-11.1v-5
		c-3.3,3.3-7,5-11.3,5c-4.9,0-8.8-1.8-11.9-5.3c-3.1-3.6-4.7-8-4.7-13.4c0-5.2,1.5-9.6,4.4-13.3c3.1-3.9,7.3-5.8,12.4-5.8
		c4.5,0,8.2,1.7,11.2,5v-4h8.2V37L543.4,37z M535.5,20.1c0-3.5-0.9-6.2-2.8-8.3s-4.3-3.2-7.2-3.2c-3.1,0-5.6,1.2-7.4,3.5
		c-1.6,2.1-2.5,4.8-2.5,8s0.8,5.9,2.5,8c1.8,2.3,4.2,3.4,7.4,3.4c3.2,0,5.6-1.1,7.5-3.4C534.6,26,535.5,23.3,535.5,20.1z"/>
	<path class="st1" d="M585.3,21.9h-25.6c0.2,2.9,1.2,5.3,2.9,7s3.8,2.6,6.5,2.6c2.1,0,3.7-0.5,5.1-1.5c1.3-1,2.8-2.8,4.5-5.4l7,3.9
		c-1.1,1.8-2.2,3.4-3.4,4.7s-2.5,2.4-3.8,3.2c-1.4,0.8-2.8,1.5-4.4,1.8c-1.6,0.4-3.3,0.6-5.2,0.6c-5.3,0-9.6-1.7-12.8-5.1
		s-4.8-8-4.8-13.7c0-5.6,1.6-10.2,4.7-13.7c3.1-3.4,7.3-5.2,12.5-5.2s9.4,1.7,12.5,5c3,3.3,4.5,7.9,4.5,13.8L585.3,21.9z
		 M576.8,15.2c-1.1-4.4-3.9-6.6-8.3-6.6c-1,0-1.9,0.2-2.8,0.5s-1.7,0.7-2.4,1.3s-1.3,1.3-1.8,2.1s-0.9,1.7-1.2,2.7H576.8z"/>
	<g>
		<polygon class="st1" points="332.1,4.6 324,12.7 316,4.6 		"/>
		<polyline class="st1" points="315.6,21.2 307.6,29.4 307.6,13.1 		"/>
		<polyline class="st1" points="324,28.9 332.1,37 316,37 		"/>
		<polyline class="st1" points="332.5,21.3 340.5,13.2 340.5,29.5 		"/>
	</g>
</g>
</svg>
