<?xml version="1.0" encoding="utf-8"?>
<!-- Generator: Adobe Illustrator 19.0.0, SVG Export Plug-In . SVG Version: 6.00 Build 0)  -->
<svg version="1.1" id="Layer_1" xmlns="http://www.w3.org/2000/svg" xmlns:xlink="http://www.w3.org/1999/xlink" x="0px" y="0px"
	 viewBox="15 19.4 526.5 81.3" style="enable-background:new 15 19.4 526.5 81.3;" xml:space="preserve">
<style type="text/css">
	.st0{fill:#1E4EC4;}
	.st1{fill:#9E1529;}
</style>
<path class="st0" d="M47.7,29.7l23.7,51.5h-4.1l-8.1-17.7h-25l-8.1,17.7H22l23.6-51.5H47.7z M57.6,60.3l-11-24.1l-11,24.1H57.6z"/>
<path class="st0" d="M80.5,30.1v51.2h-3.6V30.1H80.5z"/>
<path class="st0" d="M90.4,79.4V30.1H94v22.3c3.6-3.7,7.6-5.5,12.1-5.5c4.4,0,8,1.5,10.8,4.6s4.2,7,4.2,11.8
	c0,5.6-1.7,10.1-5.1,13.5c-3.4,3.4-8,5.1-13.7,5.1C98.6,81.9,94.6,81.1,90.4,79.4z M94,56.4v20.4c2.8,1,5.5,1.6,8.3,1.6
	c4.3,0,7.9-1.4,10.8-4.2c2.9-2.8,4.3-6.3,4.3-10.6c0-4-1.1-7.3-3.3-9.8s-5-3.8-8.3-3.8C101.7,49.9,97.8,52.1,94,56.4z"/>
<path class="st0" d="M151.6,81.2v-5.6h-0.1c-1.6,2.2-3.2,3.8-4.8,4.8s-3.7,1.4-6.3,1.4c-3.6,0-6.6-1.2-9-3.5s-3.6-5.7-3.6-10V47.5
	h3.6v20.8c0,3.1,0.9,5.6,2.6,7.4c1.7,1.8,3.9,2.7,6.7,2.7c2.3,0,4.3-0.5,6-1.6c1.6-1.1,3.3-2.9,5-5.6V47.5h3.6v33.7H151.6z"/>
<path class="st0" d="M168.1,47.5v5.9h0.1c2.7-4.4,6.3-6.6,10.7-6.6c5.2,0,8.8,2.7,10.9,8.1c3.2-5.4,7.1-8.1,11.7-8.1
	c3.5,0,6.3,1.2,8.5,3.7c2.1,2.5,3.2,5.8,3.2,9.9v20.7h-3.6v-19c0-3.6-0.8-6.5-2.3-8.6s-3.7-3.1-6.5-3.1c-2.1,0-3.9,0.6-5.4,1.9
	c-1.5,1.3-3.1,3.2-4.8,6v23H187V62.1c0-3.7-0.8-6.6-2.4-8.6c-1.6-2-3.7-3-6.4-3c-3.9,0-7.3,2.4-10.1,7.2v23.6h-3.6V47.5H168.1z"/>
<path class="st1" d="M254.8,32.7h-22.7v13.6h22v8h-22v18.9h22.7v8h-31.2V24.7h31.2V32.7z"/>
<g>
	<path class="st1" d="M323.3,47.1V58c-1.9-2.3-3.6-3.9-5.1-4.7c-1.5-0.9-3.2-1.3-5.2-1.3c-3.1,0-5.7,1.1-7.7,3.3s-3.1,4.9-3.1,8.2
		s1,6.1,3,8.2c2,2.1,4.6,3.2,7.7,3.2c2,0,3.7-0.4,5.2-1.3c1.5-0.8,3.2-2.4,5.2-4.8v10.9c-3.3,1.7-6.7,2.6-10,2.6
		c-5.5,0-10.1-1.8-13.8-5.3c-3.7-3.6-5.6-8-5.6-13.4s1.9-9.8,5.6-13.5s8.4-5.5,13.8-5.5C316.9,44.6,320.2,45.4,323.3,47.1z"/>
	<path class="st1" d="M332.3,19.4h8.2v29.2c2.9-2.6,6.2-4,9.7-4c4,0,7.2,1.3,9.7,3.9c2.1,2.3,3.1,5.9,3.1,10.9v21.9h-8.2V60.1
		c0-2.9-0.5-4.9-1.5-6.2s-2.6-1.9-4.9-1.9c-2.9,0-4.9,0.9-6.1,2.7c-1.1,1.8-1.7,4.9-1.7,9.3v17.2h-8.2V19.4H332.3z"/>
	<path class="st1" d="M398.7,45.6h8.3v35.7h-8.3v-3.7c-3.4,3.2-7,4.8-10.9,4.8c-4.9,0-9-1.8-12.2-5.3c-3.2-3.6-4.8-8.2-4.8-13.6
		c0-5.3,1.6-9.8,4.8-13.4c3.2-3.6,7.2-5.3,12-5.3c4.2,0,7.9,1.7,11.2,5.1L398.7,45.6L398.7,45.6z M379.1,63.3c0,3.4,0.9,6.2,2.7,8.3
		c1.9,2.2,4.2,3.3,7.1,3.3c3.1,0,5.5-1,7.4-3.1c1.9-2.2,2.8-4.9,2.8-8.3c0-3.4-0.9-6.1-2.8-8.3c-1.9-2.1-4.3-3.2-7.3-3.2
		c-2.8,0-5.2,1.1-7.1,3.2C380.1,57.4,379.1,60.1,379.1,63.3z"/>
	<path class="st1" d="M416.3,45.6h8.3v3.3c2.9-2.9,6.1-4.3,9.7-4.3c4.2,0,7.4,1.3,9.7,3.9c2,2.2,3,5.8,3,10.9v21.9h-8.3v-20
		c0-3.5-0.5-5.9-1.5-7.3s-2.7-2-5.2-2c-2.7,0-4.7,0.9-5.8,2.7c-1.1,1.8-1.7,4.9-1.7,9.3v17.2h-8.3L416.3,45.6L416.3,45.6z"/>
	<path class="st1" d="M491,80.4c0,1.7-0.1,3.2-0.2,4.4c-0.1,1.2-0.3,2.4-0.5,3.4c-0.6,2.7-1.7,5-3.4,6.9c-3.2,3.7-7.7,5.6-13.3,5.6
		c-4.8,0-8.7-1.3-11.8-3.9c-3.2-2.6-5-6.3-5.5-11h8.3c0.3,1.8,0.8,3.1,1.6,4.1c1.7,2.2,4.2,3.3,7.5,3.3c6,0,9-3.7,9-11.1v-5
		c-3.3,3.3-7,5-11.3,5c-4.9,0-8.8-1.8-11.9-5.3c-3.1-3.6-4.7-8-4.7-13.4c0-5.2,1.5-9.6,4.4-13.3c3.1-3.9,7.3-5.8,12.4-5.8
		c4.5,0,8.2,1.7,11.2,5v-4h8.2L491,80.4L491,80.4z M483.1,63.5c0-3.5-0.9-6.2-2.8-8.3S476,52,473.1,52c-3.1,0-5.6,1.2-7.4,3.5
		c-1.6,2.1-2.5,4.8-2.5,8c0,3.2,0.8,5.9,2.5,8c1.8,2.3,4.2,3.4,7.4,3.4s5.6-1.1,7.5-3.4C482.2,69.4,483.1,66.7,483.1,63.5z"/>
	<path class="st1" d="M532.9,65.3h-25.6c0.2,2.9,1.2,5.3,2.9,7c1.7,1.7,3.8,2.6,6.5,2.6c2.1,0,3.7-0.5,5.1-1.5
		c1.3-1,2.8-2.8,4.5-5.4l7,3.9c-1.1,1.8-2.2,3.4-3.4,4.7c-1.2,1.3-2.5,2.4-3.8,3.2c-1.4,0.8-2.8,1.5-4.4,1.8
		c-1.6,0.4-3.3,0.6-5.2,0.6c-5.3,0-9.6-1.7-12.8-5.1c-3.2-3.4-4.8-8-4.8-13.7c0-5.6,1.6-10.2,4.7-13.7c3.1-3.4,7.3-5.2,12.5-5.2
		c5.2,0,9.4,1.7,12.5,5c3,3.3,4.5,7.9,4.5,13.8L532.9,65.3z M524.4,58.6c-1.1-4.4-3.9-6.6-8.3-6.6c-1,0-1.9,0.2-2.8,0.5
		s-1.7,0.7-2.4,1.3c-0.7,0.6-1.3,1.3-1.8,2.1s-0.9,1.7-1.2,2.7H524.4z"/>
</g>
<polygon class="st1" points="281.7,49 273.6,57.1 265.6,49 "/>
<polyline class="st1" points="267.2,64.6 259.2,72.8 259.2,56.5 "/>
<polyline class="st1" points="273.6,71.3 281.7,79.4 265.6,79.4 "/>
<polyline class="st1" points="280.1,64.7 288.1,56.6 288.1,72.9 "/>
</svg>
